<?xml version="1.0" encoding="utf-8"?>
<!-- Generator: Adobe Illustrator 25.0.0, SVG Export Plug-In . SVG Version: 6.00 Build 0)  -->
<svg version="1.1" xmlns="http://www.w3.org/2000/svg" xmlns:xlink="http://www.w3.org/1999/xlink" x="0px" y="0px"
	 viewBox="0 0 100 100" style="enable-background:new 0 0 100 100;" xml:space="preserve">
<style type="text/css">
	.st0{fill:#FF8F00;}
</style>
<g id="Layer_2">
</g>
<g id="Layer_1">
	<path class="st0" d="M94.6,80.5L54.8,11.6c-2.2-3.8-7.7-3.8-9.9,0L5.1,80.5c-2.2,3.8,0.5,8.6,4.9,8.6h79.6
		C94.1,89.1,96.8,84.3,94.6,80.5z M48.6,32.7c2.4-0.6,4.8,0.6,5.9,2.8c0.4,0.8,0.5,1.7,0.4,2.5c-0.2,2.5-0.3,5-0.4,7.6
		c-0.2,3.9-0.5,7.9-0.7,11.8c-0.1,1.2-0.1,2.4-0.2,3.7c-0.1,2.1-1.7,3.7-3.8,3.7c-2,0-3.7-1.6-3.8-3.6c-0.3-6.1-0.7-12.2-1-18.3
		c-0.1-1.6-0.2-3.3-0.3-4.9C44.7,35.6,46.3,33.3,48.6,32.7z M49.9,78.5c-2.8,0-5-2.3-5-5.1c0-2.8,2.3-5.1,5.1-5.1s5,2.3,5,5.2
		C54.9,76.2,52.6,78.5,49.9,78.5z"/>
</g>
</svg>
